<?xml version="1.0" encoding="iso-8859-1"?>
<!-- Uploaded to: SVG Repo, www.svgrepo.com, Generator: SVG Repo Mixer Tools -->
<svg version="1.1" id="Layer_1" xmlns="http://www.w3.org/2000/svg" xmlns:xlink="http://www.w3.org/1999/xlink" 
	 viewBox="0 0 512 512" xml:space="preserve">
<g>
	<path style="fill:#FF5023;" d="M373.011,384.265V127.735c0,0-2.994-25.015,0-25.015c2.994,0-53.466,0-53.466,0v305.508h53.466
		V384.265z"/>
	<path style="fill:#FF5023;" d="M439.819,435.83h46.563c9.974,0,18.059-8.085,18.059-18.059v-33.507V127.735V94.229
		c0-9.974-8.085-18.059-18.059-18.059h-46.563L439.819,435.83L439.819,435.83z"/>
</g>
<path style="fill:#FF7956;" d="M340.806,76.17H289.24v51.566v256.528v51.566l0,0h51.566l0,0h72.888H447.2
	c9.974,0,18.059-8.085,18.059-18.059v-33.507V127.735V94.229c0-9.974-8.085-18.059-18.059-18.059h-58.863H340.806z M340.806,154.265
	v-26.529h54.829c9.974,0,18.059,8.085,18.059,18.059v238.469h-72.888V214.745L340.806,154.265L340.806,154.265z"/>
<g>
	<rect x="205.317" y="76.174" style="fill:#3C66B1;" width="51.569" height="359.661"/>
	<polygon style="fill:#3C66B1;" points="49.081,76.17 100.648,76.17 100.648,111.861 100.648,167.047 100.648,230.218 
		100.648,281.783 100.648,435.83 49.081,435.83 	"/>
</g>
<polygon style="fill:#52A2E7;" points="161.429,382.507 161.429,435.83 212.995,435.83 212.995,281.783 212.995,230.217 
	212.995,76.17 161.429,76.17 161.429,230.217 59.126,230.217 59.126,76.17 7.56,76.17 7.56,435.83 59.126,435.83 59.126,281.783 
	161.429,281.783 161.429,328.075 "/>
<polygon style="fill:#ACD4F3;" points="212.995,265.391 212.995,230.246 212.995,182.553 161.429,203.381 161.429,230.246 
	94.917,230.246 7.56,265.531 7.56,348.369 59.126,327.541 59.126,281.813 161.429,281.813 161.429,286.22 "/>
<g>
	<polygon style="fill:#FFBCAB;" points="289.24,227.254 289.24,295.431 340.806,275.287 340.806,207.111 	"/>
	<polygon style="fill:#FFBCAB;" points="465.261,158.496 413.694,178.639 413.694,246.815 465.261,226.673 	"/>
</g>
<path d="M333.246,127.736v26.528c0,4.176,3.384,7.56,7.56,7.56c4.176,0,7.56-3.384,7.56-7.56v-18.968h17.135
	c0.58,88.112,1.076,211.824,0.395,241.408h-17.53v-161.96c0-4.176-3.384-7.56-7.56-7.56c-4.176,0-7.56,3.384-7.56,7.56v169.52
	c0,4.176,3.384,7.56,7.56,7.56h72.888c4.176,0,7.56-3.384,7.56-7.56V145.796c0-14.127-11.492-25.619-25.619-25.619h-22.622h-0.052
	h-32.153C336.631,120.177,333.246,123.56,333.246,127.736z M406.134,145.796v230.909h-25.089c0.175-6.476,0.209-16.695,0.262-33.232
	c0.07-21.364,0.04-51.022-0.086-88.148c-0.172-50.417-0.482-101.219-0.601-120.028h15.014
	C401.424,135.296,406.134,140.006,406.134,145.796z"/>
<path d="M486.381,68.61H447.2h-7.382h-51.481c-4.176,0-7.56,3.384-7.56,7.56s3.384,7.56,7.56,7.56h51.481h7.382
	c5.789,0,10.499,4.71,10.499,10.499v323.542c0,5.789-4.71,10.499-10.499,10.499h-7.382H296.8V83.73h44.006
	c4.176,0,7.56-3.384,7.56-7.56s-3.384-7.56-7.56-7.56H289.24c-4.176,0-7.56,3.384-7.56,7.56V435.83c0,4.176,3.384,7.56,7.56,7.56
	h150.578h7.382h39.181c14.127,0,25.619-11.492,25.619-25.619V94.229C512,80.103,500.508,68.61,486.381,68.61z M496.88,417.771
	c0,5.789-4.71,10.499-10.499,10.499H470.56c1.447-3.206,2.259-6.759,2.259-10.499V94.229c0-3.741-0.812-7.293-2.259-10.499h15.821
	c5.789,0,10.499,4.71,10.499,10.499L496.88,417.771L496.88,417.771z"/>
<path d="M256.883,68.61h-43.888h-7.678h-43.888c-4.176,0-7.56,3.384-7.56,7.56v146.487h-45.662v-55.61c0-4.176-3.384-7.56-7.56-7.56
	c-4.176,0-7.56,3.384-7.56,7.56v55.61H66.686V83.73h26.402v28.131c0,4.176,3.384,7.56,7.56,7.56c4.176,0,7.56-3.384,7.56-7.56V76.17
	c0-4.176-3.384-7.56-7.56-7.56H59.126H49.081H7.56C3.384,68.61,0,71.994,0,76.17V435.83c0,4.176,3.384,7.56,7.56,7.56h41.521h10.045
	h41.522c4.176,0,7.56-3.384,7.56-7.56V289.343h45.662v38.732c0,4.176,3.384,7.56,7.56,7.56s7.56-3.384,7.56-7.56v-46.292
	c0-4.176-3.384-7.56-7.56-7.56H59.126c-4.176,0-7.56,3.384-7.56,7.56V428.27h-2.485H15.12V83.73h33.961h2.485v146.487
	c0,4.176,3.384,7.56,7.56,7.56h102.303c4.176,0,7.56-3.384,7.56-7.56V83.73h36.328h0.118V428.27h-0.118h-36.328v-45.764
	c0-4.176-3.384-7.56-7.56-7.56c-4.176,0-7.56,3.384-7.56,7.56v53.324c0,4.176,3.384,7.56,7.56,7.56h43.888h7.678h43.888
	c4.176,0,7.56-3.384,7.56-7.56V76.17C264.443,71.995,261.058,68.61,256.883,68.61z M66.686,289.343h26.402V428.27H66.686V289.343z
	 M249.323,428.27h-28.768V83.73h28.768L249.323,428.27L249.323,428.27z"/>
</svg>